<?xml version="1.0" encoding="utf-8"?>
<!-- Generator: Adobe Illustrator 18.0.0, SVG Export Plug-In . SVG Version: 6.00 Build 0)  -->
<!DOCTYPE svg PUBLIC "-//W3C//DTD SVG 1.1//EN" "http://www.w3.org/Graphics/SVG/1.1/DTD/svg11.dtd">
<svg version="1.1" id="Calque_1" xmlns="http://www.w3.org/2000/svg" xmlns:xlink="http://www.w3.org/1999/xlink" x="0px" y="0px"
	 viewBox="0 0 500 400" enable-background="new 0 0 500 400" xml:space="preserve">
<line fill="#FDFEFF" stroke="#020202" stroke-miterlimit="10" x1="206.5" y1="74.1" x2="237.3" y2="187.8"/>
<path fill="#FDFEFF" stroke="#020202" stroke-miterlimit="10" d="M387.2,233.9"/>
<g>
	<image overflow="visible" opacity="0.67" width="501" height="340" xlink:href="4701E11.png"  transform="matrix(1 0 0 1 3 32)">
	</image>
	<g>
		<path fill="#FCDD03" d="M403.4,254.1c-4.7-2.9-10.4-8.1-10.4-13.6l-0.6-3l-1.6-8.3c-21.1-52.3-60.7-198-220.1-185.7
			c0.9-1,1.3-2,1.2-3.1c-0.4-4.1-8.9-6.7-18.9-5.7c-10.1,1-17.9,5.1-17.5,9.2c0.1,1.6,1.5,2.9,3.6,3.9C0.8,75.2,1.6,237.4,5.7,291.8
			c0.8,10.1,10.4,17,20.2,14.4c34-9,103.9-27.4,106.1-26c2.9,1.9,54.9,53,104,78c41.2,21,153-22.4,187.9-36.9c3-1.3,6.3-1.5,9.4-0.9
			c1.3,0.3,2.7,0.7,3.9,1.3c1.8,0.9,3.5,2.2,4.9,3.7l0,0c7.7,8.7,53.9,14.4,53.9,0C496,313.4,426.6,268.7,403.4,254.1z"/>
		<path fill="none" stroke="#FFFFFF" stroke-width="3" stroke-miterlimit="10" d="M403.4,254.1c-4.7-2.9-10.4-8.1-10.4-13.6l-0.6-3
			l-1.6-8.3c-21.1-52.3-60.7-198-220.1-185.7c0.9-1,1.3-2,1.2-3.1c-0.4-4.1-8.9-6.7-18.9-5.7c-10.1,1-17.9,5.1-17.5,9.2
			c0.1,1.6,1.5,2.9,3.6,3.9C0.8,75.2,1.6,237.4,5.7,291.8c0.8,10.1,10.4,17,20.2,14.4c34-9,103.9-27.4,106.1-26
			c2.9,1.9,54.9,53,104,78c41.2,21,153-22.4,187.9-36.9c3-1.3,6.3-1.5,9.4-0.9c1.3,0.3,2.7,0.7,3.9,1.3c1.8,0.9,3.5,2.2,4.9,3.7l0,0
			c7.7,8.7,53.9,14.4,53.9,0C496,313.4,426.6,268.7,403.4,254.1z"/>
	</g>
</g>
<path fill="#FCFCFA" d="M127.5,280.2c0,0,226.8-46.8,251.8-42.4l13.6,2.6"/>
<path fill="none" d="M427.8,320.2c17.5-1.4,36.1-2.8,53.4,0.2c6.6,1.1,9.9,3.3,14.1,8.5"/>
</svg>
