<?xml version="1.0" encoding="utf-8"?>
<!-- Generator: Adobe Illustrator 18.0.0, SVG Export Plug-In . SVG Version: 6.00 Build 0)  -->
<!DOCTYPE svg PUBLIC "-//W3C//DTD SVG 1.1//EN" "http://www.w3.org/Graphics/SVG/1.1/DTD/svg11.dtd">
<svg version="1.1" id="Calque_1" xmlns="http://www.w3.org/2000/svg" xmlns:xlink="http://www.w3.org/1999/xlink" x="0px" y="0px"
	 viewBox="0 0 120 40" enable-background="new 0 0 120 40" xml:space="preserve">
<g>
	<path fill="#F5E0CD" d="M34.1,17c0.8,1.5,1.2,3.2,1.2,5c0,6.7-5.8,12.2-12.9,12.2S9.3,28.8,9.3,22c0-2.4,0.7-4.6,1.9-6.5"/>
	<path fill="#99CCFF" stroke="#FFFFFF" stroke-width="0.657" stroke-miterlimit="10" d="M27.1,22.7c1.4,0,2.7,0.6,3.2,1.5h0.2
		c-0.5-0.9-1.8-1.8-3.4-1.8c-1.6,0-2.8,0.8-3.4,1.7H24C24.5,23.2,25.7,22.7,27.1,22.7z"/>
	<path fill="#99CCFF" stroke="#FFFFFF" stroke-width="0.657" stroke-miterlimit="10" d="M17.3,22.7c1.4,0,2.7,0.6,3.2,1.5h0.2
		c-0.5-0.9-1.8-1.8-3.4-1.8c-1.6,0-2.8,0.8-3.4,1.7h0.3C14.7,23.2,15.9,22.7,17.3,22.7z"/>
	<path fill="#DB9C94" d="M22.3,32.4c3,0,5.4-1.8,5.4-4.1H16.9C16.9,30.6,19.3,32.4,22.3,32.4z"/>
	<g>
		<path fill="#FFE431" stroke="#FFFFFF" stroke-width="0.657" stroke-miterlimit="10" d="M26.6,6.3c8.3,1.9,8.4,7.3,8.1,9.4
			c-0.3,2.3,0.2,2.5-1.2,2.1c-1.4-0.4-3.4-0.9-4.1-0.4c-0.7,0.5-6.1,4.1-8.2,3.6c-2.1-0.5-11.3-5.4-12.3-5.1S5.9,17,5.4,16.7
			c-0.5-0.4-0.8-0.8,0.2-1.1c0.9-0.4,6.2-2.5,6.2-2.5s0.6-8.6,11.8-7.4"/>
	</g>
	<g>
		<path fill="#FFE431" stroke="#FFFFFF" stroke-width="0.657" stroke-miterlimit="10" d="M11.8,12.7c0,0,1.2,0.3,3.1,0.8
			c3.8,0.9,9.9,2.5,10.8,2.5c3.3,0.4,3.8,0.9,3.8,0.9l0.1-0.8c1-4.4-2.5-8.4-3.9-9.8"/>
		<path fill="none" stroke="#FFFFFF" stroke-width="0.657" stroke-miterlimit="10" d="M24,6.1C21.6,6.6,16,8.2,15,13l-0.2,0.5"/>
	</g>
	<path fill="#FFE431" stroke="#FFFFFF" stroke-width="0.657" stroke-miterlimit="10" d="M27.2,5.7c-0.2,0.6-1.2,1-2.3,0.7
		c-1.2-0.3-1.8-1-1.7-1.6s1.2-1,2.3-0.7C26.6,4.3,27.3,5.1,27.2,5.7z"/>
</g>
<rect x="43.2" y="14.9" fill="none" width="76.5" height="19.3"/>
<text transform="matrix(1 0 0 1 43.1667 24.8304)" font-family="'Roboto-Condensed'" font-size="13">AireJeux.com</text>
</svg>
