<?xml version="1.0" encoding="utf-8"?>
<!-- Generator: Adobe Illustrator 18.0.0, SVG Export Plug-In . SVG Version: 6.00 Build 0)  -->
<!DOCTYPE svg PUBLIC "-//W3C//DTD SVG 1.1//EN" "http://www.w3.org/Graphics/SVG/1.1/DTD/svg11.dtd">
<svg version="1.1" id="Calque_1" xmlns="http://www.w3.org/2000/svg" xmlns:xlink="http://www.w3.org/1999/xlink" x="0px" y="0px"
	 viewBox="0 0 80 80" enable-background="new 0 0 80 80" xml:space="preserve">
<g>
	<path fill="#F5E0CD" d="M75.8,34.8c2,3.9,3,8.2,3,12.9c0,17.2-15,31.3-33.2,31.3S12.1,65,12.1,47.5c0-6.1,1.8-11.8,4.9-16.6"/>
	<path fill="#99CCFF" stroke="#FFFFFF" stroke-width="1.4746" stroke-miterlimit="10" d="M57.9,49.3c3.6,0,6.9,1.6,8.1,3.9h0.4
		c-1.4-2.4-4.7-4.5-8.7-4.5s-7.3,2-8.7,4.3h0.8C51.2,50.7,54.3,49.3,57.9,49.3z"/>
	<path fill="#99CCFF" stroke="#FFFFFF" stroke-width="1.4746" stroke-miterlimit="10" d="M32.8,49.3c3.6,0,6.9,1.6,8.1,3.9h0.4
		c-1.4-2.4-4.7-4.5-8.7-4.5s-7.3,2-8.7,4.3h0.8C26.1,50.7,29.2,49.3,32.8,49.3z"/>
	<path fill="#DB9C94" d="M45.4,74.2c7.7,0,13.8-4.5,13.8-10.4H31.6C31.6,69.7,37.7,74.2,45.4,74.2z"/>
	<g>
		<path fill="#FFE431" stroke="#FFFFFF" stroke-width="1.4746" stroke-miterlimit="10" d="M56.5,7.2C77.8,12.1,78,26,77.2,31.3
			c-0.8,5.9,0.6,6.3-3,5.3s-8.7-2.4-10.5-1c-1.8,1.4-15.6,10.6-21.1,9.2c-5.3-1.4-29-13.9-31.6-13.1s-7.5,3.1-8.9,2.2
			c-1.4-1-2-2,0.4-2.9c2.4-1,16-6.3,16-6.3S20,2.7,48.8,5.8"/>
	</g>
	<g>
		<path fill="#FFE431" stroke="#FFFFFF" stroke-width="1.4746" stroke-miterlimit="10" d="M18.6,23.8c0,0,3.2,0.8,7.9,2
			c9.7,2.4,25.3,6.3,27.8,6.5c8.5,1,9.7,2.4,9.7,2.4l0.2-2c2.6-11.4-6.5-21.5-10.1-25.1"/>
		<path fill="none" stroke="#FFFFFF" stroke-width="1.4746" stroke-miterlimit="10" d="M49.8,6.8C43.7,8,29.4,12.3,26.9,24.4
			l-0.4,1.4"/>
	</g>
	<path fill="#FFE431" stroke="#FFFFFF" stroke-width="1.4746" stroke-miterlimit="10" d="M58.1,5.8c-0.4,1.6-3,2.5-5.9,1.8
		c-3-0.8-4.7-2.5-4.3-4.1c0.4-1.6,3-2.5,5.9-1.8C56.5,2.3,58.3,4.2,58.1,5.8z"/>
</g>
</svg>
