<?xml version="1.0" encoding="utf-8"?>
<!-- Generator: Adobe Illustrator 18.0.0, SVG Export Plug-In . SVG Version: 6.00 Build 0)  -->
<!DOCTYPE svg PUBLIC "-//W3C//DTD SVG 1.1//EN" "http://www.w3.org/Graphics/SVG/1.1/DTD/svg11.dtd">
<svg version="1.1" id="Calque_1" xmlns="http://www.w3.org/2000/svg" xmlns:xlink="http://www.w3.org/1999/xlink" x="0px" y="0px"
	 viewBox="0 0 200 60" enable-background="new 0 0 200 60" xml:space="preserve">
<g>
	<path fill="#CCCCCC" stroke="#CCCCCC" stroke-miterlimit="10" d="M117.3,11.5c0,0.2,0,0.4-0.1,0.6c-0.3,0.3-1,0.6-1.9,0.9
		c-0.7,0.2-1.4,0.4-2.1,0.7c1.5,4.9,2.3,8.6,2.3,11c0,2.3-0.8,4.2-2.3,5.5c-1.2,1.1-3.1,1.9-5.6,2.6c-1.8,0.5-3.3,0.7-4.4,0.7
		c-1.4,0-2.9-0.4-4.4-1.1c-1.5-0.8-2.6-1.7-3.4-2.9c-0.6-0.9-0.9-1.3-0.9-1.4c0-0.2,0.4-0.8,1.1-1.7c0.8-0.9,1.3-1.4,1.5-1.6
		c0.2-0.1,0.7-0.3,1.4-0.6c0.7-0.3,1.2-0.4,1.3-0.4c3.2,2.7,5.1,4.1,5.8,4.1c1.2,0,1.8-1,1.8-2.9c0-1.4-0.2-3-0.7-4.9
		c-0.4-1.6-0.9-3.2-1.3-4.8c-0.4,0-1.3,0.3-2.6,1c-0.3-0.1-0.8-0.4-1.5-0.9c-0.7-0.5-1.1-0.9-1.3-1.2c-0.2-0.3-0.5-1.2-0.9-2.6
		c-0.4-1.4-0.6-2.3-0.6-2.7l0.3-0.5c0.3-0.1,3-0.7,7.8-1.6c4.9-0.9,7.5-1.4,7.8-1.4c0.2,0,0.6,0.4,1.3,1.1c0.7,0.7,1.1,1.2,1.2,1.4
		C117.2,8.5,117.3,9.7,117.3,11.5z"/>
	<path fill="#CCCCCC" stroke="#CCCCCC" stroke-miterlimit="10" d="M138.6,27.7c0,0.3-0.1,0.8-0.2,1.5c-0.2,0.8-0.3,1.3-0.4,1.4
		c-0.1,0.1-2.4,0.7-7,1.9c-4.5,1.2-6.9,1.7-7,1.7c-0.6,0-1-0.1-1.2-0.3c-0.1-0.3-0.3-0.8-0.5-1.3c-0.7-1.6-1.3-4.2-1.8-7.9
		c-0.3-2.8-0.7-5.5-1-8.3c0-0.3-0.2-1-0.5-2.2c-0.2-0.9-0.3-1.6-0.3-2.2c0-0.5,0.2-1.1,0.5-2c0.4-0.8,0.7-1.4,1.1-1.5
		c0.6-0.3,2.9-0.9,6.9-1.9c3.9-0.9,6.3-1.4,7-1.4c0.5,0,0.8,0.6,1.1,1.9c0.2,0.9,0.3,1.7,0.3,2.4c0,0.2-0.1,0.6-0.3,1.2
		c-0.2,0.6-0.4,0.9-0.6,1c-0.8,0.5-2.1,0.9-4,1.3c-2,0.4-3.4,0.8-4.1,1.1c0.1,0.8,0.2,1.5,0.4,1.9l5.7-0.7c0.1,0.9,0.3,2.2,0.6,4
		c-0.2,0.9-0.3,1.5-0.4,1.7c-0.2,0.3-0.7,0.6-1.3,0.7c-0.7,0.1-1.4,0.2-2,0.3c-1,0.1-1.6,0.3-1.6,0.6l0.3,2.6c4.1-1.1,7-1.7,8.6-1.7
		c0.4,0,0.8,0.1,1.1,0.3c0.1,0.1,0.3,0.7,0.5,1.9C138.5,26.8,138.6,27.5,138.6,27.7z M123.7,31.1c0-0.6-0.1-1.4-0.4-2.5
		c-0.4-1.3-0.6-2.1-0.7-2.4c-0.5-2.7-0.9-5.3-1.4-8c-0.6-3.6-1-6.1-1.1-7.8c-0.3,0.8-0.5,1.3-0.5,1.6c0,0.4,0.1,1.2,0.3,2.3
		c0.3,1.4,0.4,2.2,0.4,2.3c0.5,3.2,0.8,5.1,0.9,5.9c0.3,2.1,0.7,4,1.1,5.8c0.2,0.9,0.5,2.2,0.9,4L123.7,31.1z"/>
	<path fill="#CCCCCC" stroke="#CCCCCC" stroke-miterlimit="10" d="M166.1,15.7c0,1.2-0.6,3.4-1.7,6.4c-0.3,0.8-0.6,1.6-0.9,2.4
		c-0.4,0.9-0.8,1.6-1.2,2.3c-1.8,2.5-4,4.1-6.8,5c-1.1,0.3-2.2,0.5-3.4,0.5c-2,0-3.9-0.4-5.7-1.3c-1.8-0.9-3.3-2.1-4.4-3.8
		c-0.3-0.4-0.6-1.3-0.8-2.5c-0.2-1.1-0.3-2-0.3-2.7c0-2,0.4-4.8,1.3-8.1c0.9-3.7,1.9-6.1,2.9-7.5c1.3,0.1,2.7,0.2,4,0.3
		c1.9,0.2,3,0.5,3.3,1c0.1,0.2,0.4,0.7,0.8,1.6c0.4,0.9,0.6,1.4,0.6,1.5c0,0.1-0.3,1.2-1,3.4c-0.7,2.4-1.1,3.7-1.2,4
		c-0.2,1-0.3,1.9-0.3,2.6c0,1.4,0.5,2,1.3,2c0.8,0,1.9-2,3.3-6.1c0.7-2.5,1.5-5.1,2.2-7.7c1.6,0.2,3.9,0.7,7,1.3
		c0.2,0.4,0.5,1.3,0.7,2.6C166,14.3,166.1,15.2,166.1,15.7z"/>
	<path fill="#CCCCCC" stroke="#CCCCCC" stroke-miterlimit="10" d="M194.6,16.6c0,0.5-0.8,1.5-2.5,2.8c-1.1,0.8-2.3,1.7-3.4,2.6
		c1,1.2,1.9,2.3,2.8,3.5c0.6,1.1,1,2.6,1,4.4c0,0.5-0.8,1.3-2.3,2.4c-1.5,1.1-2.6,1.7-3.1,1.7c-0.3,0-1.3-0.9-3.1-2.8
		c-1.8-1.9-2.7-2.8-2.7-2.8c-0.3,0-1.7,0.7-4.1,2.1c-2.4,1.4-3.7,2.1-3.9,2.1c-0.3,0-1-0.6-2.1-1.7c-1.1-1.1-1.7-1.9-1.8-2.3
		c-0.5-1.7-0.8-2.9-0.8-3.8c0-0.5,1.5-2,4.6-4.5c-0.7-0.9-1.4-1.9-2.2-2.8c-0.8-1.1-1.1-2.2-1.1-3.3c0-1.4,0.1-2.3,0.3-2.6
		c0.2-0.3,1.2-1.2,3-2.7c1.8-1.5,2.9-2.2,3.1-2.2c0,0,0.1,0,0.4,0c2.1,2.4,3.7,4.8,5,7.1l4.4-3.5c2.4-1.9,3.7-2.8,4.1-2.8
		c0.4,0,1.2,0.7,2.3,2c1,1.3,1.6,2.2,1.8,2.7C194.4,13,194.6,14.5,194.6,16.6z M172.1,30.2V29l-2-2.6h0c0,0.8,0.2,1.5,0.6,2.1
		C170.9,28.9,171.4,29.4,172.1,30.2z M174.6,19c-1.1-1.4-2.3-3-3.4-4.6v0.7c0,0.4,0.1,0.8,0.2,1c0.1,0.2,0.6,0.8,1.4,1.8
		c0.8,1,1.2,1.5,1.3,1.5C174.3,19.4,174.4,19.3,174.6,19z M186.5,32.1v-0.3c0-0.5-0.7-1.5-2.1-3c-0.9-0.9-1.9-1.9-2.8-2.8V27
		C182.7,28.2,184.3,29.9,186.5,32.1z"/>
</g>
<rect x="40.6" y="40.1" fill="none" width="152" height="25.9"/>
<text transform="matrix(1 0 0 1 144.1911 54.2764)" fill="#333333" stroke="#333333" stroke-miterlimit="10" font-family="'MyriadPro-Bold'" font-size="20">.COM</text>
<g>
	<g>
		<path fill="#FFFFFF" d="M6.1,34.8c-0.3,0-0.7-0.1-2.5-1.3c-1.4-1-1.5-1.1-1.5-1.1C1.3,31.8,1,31.2,1,30.6c0-1,0.2-2.3,0.8-4l1-3
			c0.1-0.2,1-4.1,2.9-11.9C5.9,10.3,6.4,9.1,7,8L7,7.9l0.1-0.1c0.2-0.1,0.4-0.2,0.8-0.4C8.6,7,9.3,6.8,10.1,6.7
			c0.6-0.1,1.1-0.1,1.7-0.2c0.3-0.1,0.9-0.2,1.9-0.4c1.2-0.3,1.4-0.3,1.4-0.3c0.2,0,0.6,0.1,1.6,0.6c1,0.5,1.2,0.7,1.3,0.8l0.1,0.1
			c0.4,0.9,0.9,2.2,1.6,3.7c0.5,1,1.2,2.5,1.9,4.2c0.9,2,1.5,3.5,1.9,4.4c0.7,1.3,1.3,2.7,2,4c1.5,3,1.5,3.2,1.5,3.4
			c0,0.4-0.2,0.9-0.9,1.3c-0.7,0.2-1.6,0.6-2.9,1.1c-0.6,0.4-1.7,0.9-3,1.5c-0.1,0-0.3,0.1-1.1,0.5c-0.8,0.4-1,0.4-1.1,0.4
			c-0.6,0-1.4-0.5-2.4-1.7c-1.2-1.4-1.4-2-1.5-2.3c-0.2-1.5-0.5-3.3-1.1-5.1c-0.4,0.1-0.8,0.2-1.3,0.4c0.4,3,0.6,5.2,0.6,6.5
			c0,1-0.1,1.5-0.4,1.8c-0.3,0.3-0.8,0.8-1.7,1.4c-0.1,0.2-0.2,0.3-0.5,0.5l-0.1,0.1C7.3,34.7,6.5,34.8,6.1,34.8z"/>
	</g>
	<path fill="#FFFFFF" d="M48.8,29c0,0.2-0.4,1.1-1.2,2.7c-1.8,0.5-4.1,1-7,1.6c-2,0.4-4.9,0.9-8.6,1.6c-0.3-0.5-0.7-1.3-1-2.3
		c-0.3-0.8-0.5-1.6-0.8-2.4c0-0.4,0.4-1.5,1.2-3.3c1.3-0.4,2.8-0.7,4.3-1c-0.4-1.6-0.7-3.4-1-5.6c-0.2-1.9-0.5-3.8-0.7-5.7
		c-0.3,0-1.2,0.2-2.9,0.5c-1.5,0.2-2.3,0.4-2.4,0.4c-0.2,0-0.4-0.7-0.6-2c-0.2-0.5-0.4-1.4-0.6-2.4c0.2-0.5,0.7-1.1,1.2-2
		c0.2-0.2,0.8-0.4,1.7-0.6c2.6-0.4,6.2-1.1,10.8-2.2C43,6,43.9,5.9,44,5.9c0.3,0,0.7,0.7,1.1,2c0.3,1.2,0.5,2,0.5,2.4
		c0,0.2-0.1,0.8-0.4,1.6c-0.2,0.8-0.4,1.3-0.6,1.3c-0.4,0.1-0.9,0.3-1.7,0.4c-0.8,0.1-1.4,0.3-1.7,0.4c0.1,0.8,0.3,1.9,0.7,3.2
		c0.4,1.7,0.7,2.8,0.8,3.2c0.1,0.9,0.4,2.2,0.8,4.1c0.1,0,0.7-0.2,1.8-0.4c0.8-0.2,1.4-0.3,1.8-0.3l0.5,0.1c0.2,0.3,0.5,1.1,0.8,2.4
		C48.7,27.7,48.8,28.6,48.8,29z"/>
	<path fill="#FFFFFF" d="M68.1,14.4c0,2.8-0.7,5-2.2,6.7c-0.3,0.4-0.9,0.9-1.7,1.4c-0.7,0.5-1,0.7-1,0.7c2.5,4,3.7,6.5,3.7,7.4
		c0,0.8-0.1,1.4-0.3,1.7c-0.3,0.4-1,0.9-2.3,1.5c-1.2,0.7-2.1,1-2.6,1.2c-0.6-0.7-1.3-1.8-2-3.2c-0.9-1.8-1.5-2.9-1.9-3.4
		c-0.1,0.2-0.1,0.7-0.1,1.4c0,0.2,0,0.6,0,1.2c0,0.6,0,1,0,1.3c0,2.1-0.4,3.1-1.1,3.1c-0.2,0-0.6-0.1-1.1-0.2
		c-0.5-0.1-0.9-0.2-1.1-0.2c-0.2,0-0.5,0-0.8,0c-0.4,0-0.7,0-0.8,0c-0.4,0-0.7-0.1-0.9-0.2c-0.3-0.1-0.7-0.6-1.2-1.5
		s-0.8-1.4-0.8-1.7c0-1.1,0.5-5.4,1.5-12.8c1-7.6,1.7-11.7,2-12.2c0.1-0.2,0.5-0.5,1.1-0.6c0.5-0.1,1-0.2,1.4-0.2
		c0.5,0,1.1,0.1,2,0.3c1,0.2,1.7,0.4,2,0.4c2.9,0.3,4.9,1,6.1,2C67.3,9.8,68.1,11.7,68.1,14.4z"/>
	<path fill="#FFFFFF" d="M89.9,28c0,0.3-0.1,0.8-0.2,1.6c-0.2,0.8-0.3,1.3-0.5,1.4c-0.1,0.1-2.5,0.7-7.1,1.9c-4.6,1.2-7,1.8-7.2,1.8
		c-0.6,0-1-0.1-1.2-0.3c-0.1-0.4-0.3-0.8-0.5-1.4c-0.7-1.6-1.4-4.3-1.9-8.1c-0.4-2.8-0.7-5.7-1.1-8.5c-0.1-0.3-0.2-1-0.5-2.2
		c-0.2-0.9-0.3-1.7-0.3-2.2c0-0.5,0.2-1.2,0.6-2c0.4-0.9,0.7-1.4,1.1-1.6c0.7-0.3,3-1,7-1.9s6.4-1.4,7.2-1.4c0.5,0,0.9,0.6,1.1,1.9
		c0.2,0.9,0.3,1.7,0.3,2.5c0,0.2-0.1,0.6-0.3,1.2c-0.2,0.6-0.4,0.9-0.6,1c-0.8,0.5-2.2,1-4.1,1.3c-2.1,0.5-3.5,0.8-4.3,1.2
		c0.1,0.9,0.3,1.5,0.4,1.9l5.9-0.8c0.1,0.9,0.3,2.3,0.6,4.1c-0.2,0.9-0.4,1.5-0.5,1.7c-0.2,0.4-0.7,0.6-1.4,0.7
		c-0.7,0.1-1.4,0.2-2.1,0.3c-1.1,0.2-1.6,0.3-1.6,0.6l0.3,2.7c4.2-1.1,7.1-1.7,8.8-1.7c0.4,0,0.8,0.1,1.1,0.3c0.1,0.1,0.3,0.7,0.5,2
		C89.7,27,89.9,27.8,89.9,28z"/>
</g>
</svg>
